<svg width="46" height="46" viewBox="0 0 46 46" fill="none" xmlns="http://www.w3.org/2000/svg">
<path d="M0.929922 0.168129C0.504815 0.362619 0.318831 0.55711 0.132846 0.999132C0.0177128 1.27319 0 2.07767 0 6.8692C0 12.3326 0 12.4122 0.185984 12.8011C0.389682 13.2166 0.841358 13.5614 1.30189 13.6587C1.99269 13.8001 2.88719 13.2255 3.09088 12.5094C3.15288 12.2796 3.18831 10.9712 3.18831 8.79642V5.43704L8.35159 10.5822C11.9207 14.1449 13.6034 15.7715 13.8337 15.8688C14.2677 16.0456 14.6662 16.0368 15.1002 15.8334C15.5253 15.6389 15.7113 15.4444 15.8972 15.0024C16.0655 14.5958 16.0655 14.2245 15.8972 13.809C15.7998 13.5791 14.1702 11.8994 10.6011 8.32787L5.44669 3.18273H8.81212C10.9908 3.18273 12.3015 3.14736 12.5318 3.08548C13.2492 2.88215 13.8248 1.98926 13.6831 1.29971C13.5857 0.840004 13.2403 0.389141 12.8241 0.18581C12.4344 0.000160217 12.3547 0.000160217 6.85486 0.000160217C1.63843 0.000160217 1.25761 0.0178413 0.929922 0.168129Z" fill="#F0F0F0"/>
<path d="M32.521 0.185674C32.1048 0.397845 31.7594 0.848709 31.6619 1.29957C31.5202 1.98913 32.0959 2.88201 32.8133 3.08535C33.0435 3.14723 34.3543 3.18259 36.533 3.18259H39.8984L34.744 8.32774C31.1748 11.8993 29.5453 13.579 29.4478 13.8088C29.2707 14.242 29.2796 14.6398 29.4833 15.073C29.6781 15.4974 29.873 15.683 30.3158 15.8687C30.7232 16.0366 31.0951 16.0366 31.5114 15.8687C31.7417 15.7714 33.4244 14.1448 37.0024 10.5821L42.1568 5.43691V8.79628C42.1568 10.971 42.1922 12.2794 42.2542 12.5093C42.4579 13.2254 43.3524 13.8 44.0432 13.6585C44.5037 13.5613 44.9554 13.2165 45.1591 12.801C45.3451 12.412 45.3451 12.3325 45.3451 6.86906C45.3451 2.07753 45.3274 1.27305 45.2122 0.998997C45.0263 0.556973 44.8403 0.362483 44.4152 0.167994C44.0875 0.017705 43.7067 2.47955e-05 38.4814 2.47955e-05C32.955 2.47955e-05 32.9018 2.47955e-05 32.521 0.185674Z" fill="#F0F0F0"/>
<path d="M13.9931 29.1824C13.8248 29.2796 11.3185 31.7196 8.44015 34.5927L3.18831 39.8263V36.4669C3.18831 34.2922 3.15288 32.9838 3.09088 32.7539C2.88719 32.0379 1.99269 31.4632 1.30189 31.6047C0.841358 31.7019 0.389682 32.0467 0.185984 32.4622C0 32.8512 0 32.9307 0 38.4207C0 43.6277 0.0177128 44.0078 0.168272 44.3349C0.363113 44.7593 0.557953 44.9449 1.00077 45.1306C1.27532 45.2455 2.08125 45.2632 6.88143 45.2632C12.3547 45.2632 12.4344 45.2632 12.8241 45.0775C13.2403 44.8742 13.5857 44.4233 13.6831 43.9636C13.8248 43.2741 13.2492 42.3812 12.5318 42.1779C12.3015 42.116 10.9908 42.0806 8.81212 42.0806H5.44669L10.734 36.8029C13.6389 33.8944 16.0832 31.3837 16.1629 31.2157C16.5172 30.4996 16.1452 29.4122 15.4456 29.1205C15.0116 28.9349 14.3562 28.9614 13.9931 29.1824Z" fill="#F0F0F0"/>
<path d="M29.891 29.1205C29.5633 29.2619 29.271 29.5802 29.147 29.9073C29.0053 30.2698 29.0319 30.9063 29.1913 31.2334C29.271 31.3925 31.7065 33.8944 34.6114 36.8029L39.8987 42.0806H36.5333C34.3546 42.0806 33.0438 42.116 32.8136 42.1779C32.0962 42.3812 31.5205 43.2741 31.6622 43.9636C31.7597 44.4233 32.1051 44.8742 32.5213 45.0775C32.911 45.2632 32.9907 45.2632 38.4905 45.2632C43.7069 45.2632 44.0878 45.2455 44.4155 45.0952C44.8406 44.9007 45.0266 44.7062 45.2125 44.2642C45.3277 43.9902 45.3454 43.1857 45.3454 38.3941C45.3454 32.9307 45.3454 32.8512 45.1594 32.4622C44.9557 32.0467 44.504 31.7019 44.0435 31.6047C43.3527 31.4632 42.4582 32.0379 42.2545 32.7539C42.1925 32.9838 42.1571 34.2922 42.1571 36.4669V39.8263L36.8698 34.5485C33.956 31.6489 31.4497 29.2177 31.2903 29.1382C30.9449 28.9702 30.2541 28.9614 29.891 29.1205Z" fill="#F0F0F0"/>
</svg>
