<svg width="39" height="46" viewBox="0 0 39 46" fill="none" xmlns="http://www.w3.org/2000/svg">
<path d="M9.71539 3.54033L0 7.07042V16.0737C0 24.2529 0.0203464 25.1685 0.183117 26.2367C0.935933 31.0283 2.85866 34.7822 6.34807 38.2411C8.4234 40.3062 10.5699 41.8525 13.4286 43.3378C15.5751 44.4569 18.7492 45.6675 19.5122 45.6675C19.8987 45.6675 22.2386 44.874 23.5509 44.2941C26.9284 42.8088 29.9295 40.8556 32.2999 38.5768C36.2267 34.8127 38.4445 30.2449 38.9124 24.9142C38.9836 24.08 39.0142 20.8144 38.9938 15.3514L38.9633 7.06025L29.2479 3.53016C23.907 1.58708 19.5122 6.10352e-05 19.4816 6.10352e-05C19.4511 6.10352e-05 15.0563 1.58708 9.71539 3.54033ZM27.3353 6.30743C31.6589 7.88428 35.3213 9.21696 35.4841 9.26783L35.7587 9.36956V16.623C35.7587 20.9263 35.718 24.3038 35.657 24.9244C34.9958 31.4555 31.0893 36.8168 24.4665 40.3062C22.7981 41.1913 20.0005 42.3103 19.4715 42.3103C19.1052 42.3103 16.7959 41.3947 15.2598 40.6318C13.6422 39.8382 11.7907 38.6785 10.5292 37.6714C6.26668 34.2633 3.84546 29.9703 3.30628 24.904C3.25542 24.3648 3.20455 20.7228 3.20455 16.6637V9.37974L6.74482 8.08774C8.6879 7.38579 12.3401 6.0531 14.8528 5.13752C17.3758 4.21176 19.441 3.45895 19.4511 3.45895C19.4715 3.44877 23.0117 4.74076 27.3353 6.30743Z" fill="#F0F0F0"/>
<path d="M22.1566 21.1705L16.2257 27.1015L13.5298 24.4056L10.8339 21.7097L9.69449 22.8593L8.54492 23.9987L12.3904 27.8442L16.2257 31.6794L23.3164 24.5887L30.4173 17.4879L29.2982 16.3688C28.6878 15.7584 28.1588 15.2498 28.1283 15.2498C28.0978 15.2498 25.4121 17.9151 22.1566 21.1705Z" fill="#F0F0F0"/>
</svg>
