<svg width="54" height="54" viewBox="0 0 54 54" fill="none" xmlns="http://www.w3.org/2000/svg">
<path d="M25.1021 4.44038C21.59 4.88335 18.3521 6.48647 15.8736 9.01772C13.7115 11.222 12.256 13.9748 11.6337 17.0439C11.3384 18.5099 11.3701 21.4525 11.697 22.7814C12.7833 27.19 15.5677 31.9783 20.2189 37.3994C21.7482 39.1818 25.9564 43.506 26.3888 43.7275C26.7474 43.9173 27.2537 43.9173 27.6122 43.7275C28.0447 43.506 32.2529 39.1818 33.7927 37.3888C38.5072 31.8833 41.4497 26.7681 42.3673 22.465C42.631 21.231 42.631 18.3623 42.3673 17.0439C40.8697 9.56616 34.3622 4.23999 26.8423 4.33491C26.2622 4.34546 25.4818 4.38765 25.1021 4.44038ZM28.899 6.90835C30.3333 7.12983 31.3247 7.42514 32.5693 8.01577C35.6912 9.50288 37.9693 11.9181 39.2349 15.0611C39.7939 16.4638 40.0681 17.6978 40.1525 19.2587C40.2685 21.5685 39.7412 23.6779 38.3384 26.5255C36.3767 30.5017 33.2232 34.6677 28.3927 39.6564L27.0216 41.0802L26.4204 40.5001C25.4818 39.5826 22.6869 36.5556 21.6322 35.3005C17.2763 30.122 14.5552 25.3021 13.9751 21.6951C13.6693 19.7966 13.838 17.7822 14.4603 15.8732C16.4747 9.76655 22.6236 5.93804 28.899 6.90835Z" fill="#F0F0F0"/>
<path d="M25.4498 14.0801C22.8553 14.7868 20.9885 17.1809 20.9674 19.8282C20.9463 21.5895 21.5158 22.9922 22.7287 24.2051C23.9627 25.4391 25.2705 25.9875 27.0002 25.9875C28.6982 25.9875 30.0271 25.4391 31.2295 24.2579C33.6974 21.811 33.6763 18.0141 31.1662 15.5567C30.5439 14.945 29.4154 14.3122 28.5189 14.0801C27.7595 13.8797 26.1881 13.8797 25.4498 14.0801ZM28.308 16.5692C30.7338 17.4762 31.3877 20.7247 29.5103 22.5387C28.0865 23.9204 25.9138 23.9204 24.49 22.5387C22.9713 21.0727 23.024 18.6575 24.606 17.2442C24.8803 16.9911 25.3549 16.6852 25.6607 16.5692C26.4095 16.2844 27.5486 16.2739 28.308 16.5692Z" fill="#F0F0F0"/>
<path d="M16 37.6418C13.9117 38.5594 12.3507 39.825 11.7601 41.0801C11.3699 41.9028 11.2855 42.9786 11.5386 43.7801C12.2453 46.0055 15.2406 47.8934 19.6492 48.8743C24.3636 49.929 29.6476 49.929 34.3832 48.8743C36.0918 48.484 37.2941 48.0727 38.7601 47.3555C41.4285 46.0583 42.7257 44.3918 42.5886 42.4301C42.4515 40.5422 40.8589 38.8864 37.9691 37.6418C36.7773 37.125 36.2816 37.104 35.8597 37.5258C35.2058 38.1903 35.364 39.1606 36.1972 39.5086C38.3171 40.4262 39.3613 41.0907 39.8781 41.8606C40.3949 42.6516 40.2789 43.2317 39.4246 44.0543C37.1359 46.2903 30.6179 47.6297 24.4058 47.1446C20.1238 46.8176 16.4113 45.6786 14.7343 44.1809C13.7324 43.2844 13.5742 42.6938 14.1226 41.8606C14.6394 41.1012 15.6836 40.4262 17.7824 39.5192C18.6156 39.1606 18.7949 38.1903 18.141 37.5258C17.7191 37.104 17.1812 37.1356 16 37.6418Z" fill="#F0F0F0"/>
</svg>
