<svg width="224" height="49" viewBox="0 0 224 49" fill="none" xmlns="http://www.w3.org/2000/svg">
<path fill-rule="evenodd" clip-rule="evenodd" d="M24.8338 49L24.7786 48.9178L24.7223 49V48.8368L0 12.6127L24.7223 0.0562817V0L24.7786 0.0281409L24.8338 0V0.0562817L49.5561 12.6127L24.8338 48.8368V49ZM24.9452 15.8129L6.68177 11.7967L9.68834 14.7064C9.68834 14.7064 23.1633 13.8093 24.9452 23.2747C25.8367 13.6978 40.5364 14.7064 40.5364 14.7064L43.5429 11.7967L24.9452 15.8129ZM12.7276 16.2114C11.4466 16.0358 10.5798 16.0358 10.5798 16.0358L11.9497 17.3674L12.7276 16.2114ZM12.7534 18.1486L13.9218 16.4095C14.2944 16.4827 14.6862 16.5705 15.088 16.6752L13.5639 18.9377L12.7534 18.1486ZM23.2263 23.5066C23.3929 23.9681 23.5291 24.433 23.6428 24.8889L21.1484 28.5922C21.1113 28.1048 21.0426 27.5454 20.9188 26.9443L23.2263 23.5066ZM21.27 30.4023L21.1878 30.3404V32.6974L24.1336 28.3243C24.1043 27.775 24.0492 27.1255 23.9434 26.4198L21.27 30.4023ZM24.1651 30.2379L21.1878 34.6752V36.9084L24.1651 32.4881V30.2379ZM21.1878 41.0868V38.8929L24.1651 34.4568V36.6653L21.1878 41.0868ZM21.9037 41.985L22.8706 42.8878L24.1651 40.9641V38.616L21.9037 41.985ZM24.1651 44.099L23.6834 43.6476L24.1651 42.9295V44.099ZM22.7142 22.2988C22.5172 21.9003 22.2943 21.512 22.0411 21.1394L19.98 24.2113C20.2029 24.6559 20.3852 25.1005 20.535 25.535L22.7142 22.2988ZM20.3436 19.2416C20.6925 19.541 21.0212 19.8675 21.3251 20.2243L19.3587 23.143C19.1302 22.7997 18.8724 22.4609 18.582 22.1289C18.5493 22.0906 18.5156 22.0523 18.4818 22.0152L20.3436 19.2416ZM19.4645 18.573C19.1358 18.349 18.7958 18.1452 18.4492 17.9606L16.7686 20.464C17.0646 20.6768 17.373 20.9233 17.6871 21.2115L19.4645 18.573ZM16.1968 17.0027C16.6099 17.14 17.0286 17.2965 17.444 17.4766L15.8275 19.8765C15.3582 19.6243 14.9439 19.4622 14.6152 19.3587L16.1968 17.0027ZM39.3117 16.0358C39.3117 16.0358 38.4438 16.0358 37.1628 16.2114L37.9418 17.3674L39.3117 16.0358ZM35.9697 16.4095L37.1369 18.1486L36.3265 18.9377L34.8024 16.6752C35.2042 16.5705 35.5959 16.4827 35.9697 16.4095ZM26.2487 24.8889C26.3612 24.433 26.4974 23.9681 26.664 23.5066L28.9716 26.9443C28.8478 27.5454 28.7791 28.1048 28.742 28.5922L26.2487 24.8889ZM28.7026 30.3404L28.6204 30.4023L25.947 26.4198C25.8412 27.1255 25.786 27.775 25.7568 28.3243L28.7026 32.6974V30.3404ZM28.7026 34.6752L25.7253 30.2379V32.4881L28.7026 36.9084V34.6752ZM28.7026 38.8929V41.0868L25.7253 36.6653V34.4568L28.7026 38.8929ZM27.0197 42.8889L27.9867 41.985L25.7253 38.616V40.9641L27.0197 42.8889ZM26.207 43.6476L25.7253 44.099V42.9295L26.207 43.6476ZM27.8493 21.1405C27.5961 21.512 27.3732 21.9003 27.1762 22.2988L29.3566 25.535C29.5051 25.1005 29.6875 24.6559 29.9104 24.2113L27.8493 21.1405ZM28.5652 20.2243C28.8692 19.8675 29.1978 19.541 29.5468 19.2416L31.4086 22.0152C31.3748 22.0534 31.341 22.0906 31.3084 22.1289C31.0191 22.4609 30.7613 22.7997 30.5317 23.143L28.5652 20.2243ZM31.4412 17.9606C31.0957 18.1452 30.7546 18.349 30.4259 18.573L32.2033 21.2115C32.5173 20.9233 32.8258 20.6768 33.1229 20.464L31.4412 17.9606ZM32.4464 17.4766C32.8618 17.2965 33.2805 17.14 33.6936 17.0027L35.2751 19.3587C34.9465 19.4622 34.5322 19.6243 34.0628 19.8765L32.4464 17.4766Z" fill="#484B52"/>
<path d="M203.433 33.1398L206.654 28.7082H212.606C213.122 28.7082 213.602 28.7251 214.049 28.7599C213.895 28.5528 213.619 28.1577 213.224 27.5747L212.76 26.9038L212.297 26.2599L209.204 21.7L201.114 33.1398H194.801L205.856 17.5509C206.783 16.2632 207.934 15.6182 209.308 15.6182C210.699 15.6182 211.833 16.2632 212.71 17.5509L223.48 33.1398H203.433Z" fill="#484B52"/>
<path d="M194.387 33.1401H186.322L181.118 28.6049C179.554 27.2305 178.489 26.2692 177.922 25.7199L177.948 26.3379L177.974 26.9558C177.991 27.1798 178 27.4027 178 27.6256V33.1401H172.641V15.9021H178V19.8959C178 21.2016 177.965 22.2068 177.896 22.9114C177.931 22.8765 178.12 22.7043 178.464 22.3959L178.798 22.0863L179.159 21.7768C179.777 21.2106 180.413 20.6523 181.066 20.1018L186.039 15.9021H193.769L187.173 20.8493C185.266 22.2923 183.78 23.3493 182.715 24.0191C183.161 24.3286 183.437 24.5166 183.539 24.5852L184.029 24.9466L184.518 25.3068C184.879 25.5814 185.309 25.9169 185.807 26.312L186.503 26.8534L187.25 27.4455L194.387 33.1401Z" fill="#484B52"/>
<path d="M151.949 33.4235C151.107 33.4235 150.429 33.1657 149.913 32.6501C149.312 32.0839 149.012 31.2589 149.012 30.1771V15.9018H153.881V26.028L164.445 16.5457C165.098 15.9277 165.811 15.6182 166.584 15.6182C167.391 15.6182 168.07 15.8681 168.62 16.3656C169.203 16.9329 169.496 17.7569 169.496 18.8397V33.1398H164.651V23.0136L154.087 32.4959C153.451 33.1139 152.739 33.4235 151.949 33.4235Z" fill="#484B52"/>
<path d="M147.465 15.9021L144.012 20.3855H137.854V33.1401H132.521V20.3855H124.43L127.882 15.9021H147.465Z" fill="#484B52"/>
<path d="M124.305 33.1401H116.241L111.036 28.6049C109.472 27.2305 108.407 26.2692 107.84 25.7199L107.866 26.3379L107.892 26.9558C107.909 27.1798 107.918 27.4027 107.918 27.6256V33.1401H102.559V15.9021H107.918V19.8959C107.918 21.2016 107.884 22.2068 107.815 22.9114C107.849 22.8765 108.038 22.7043 108.382 22.3959L108.717 22.0863L109.077 21.7768C109.695 21.2106 110.331 20.6523 110.984 20.1018L115.957 15.9021H123.687L117.091 20.8493C115.184 22.2923 113.698 23.3493 112.633 24.0191C113.08 24.3286 113.355 24.5166 113.458 24.5852L113.947 24.9466L114.436 25.3068C114.798 25.5814 115.226 25.9169 115.725 26.312L116.421 26.8534L117.168 27.4455L124.305 33.1401Z" fill="#484B52"/>
<path d="M80.6051 33.1398L83.8256 28.7082H89.7779C90.2935 28.7082 90.7741 28.7251 91.221 28.7599C91.0668 28.5528 90.791 28.1577 90.3959 27.5747L89.9322 26.9038L89.4684 26.2599L86.3763 21.7L78.2863 33.1398H71.9727L83.0275 17.5509C83.955 16.2632 85.1054 15.6182 86.4798 15.6182C87.8711 15.6182 89.0046 16.2632 89.8815 17.5509L100.652 33.1398H80.6051Z" fill="#484B52"/>
<path d="M75.6717 15.9021L72.2194 20.3855H66.061V33.1401H60.7267V20.3855H52.6367L56.089 15.9021H75.6717Z" fill="#484B52"/>
</svg>
