<svg width="23" height="23" viewBox="0 0 23 23" fill="none" xmlns="http://www.w3.org/2000/svg">
<path d="M10.9391 0.0116062C10.8673 0.0205803 10.6475 0.0519886 10.4501 0.0789089C9.34627 0.226978 8.02263 0.850662 7.12524 1.64485C5.99005 2.64543 5.18689 4.09023 4.9446 5.57091C4.85486 6.10934 4.86832 7.32081 4.96703 7.81438C5.2856 9.43416 6.20094 10.9328 7.43484 11.8661L7.73995 12.0994L7.61432 12.1443C7.0714 12.3507 6.83808 12.4539 6.37593 12.6827C4.38373 13.6833 2.76395 15.1954 1.61081 17.1248C0.668552 18.7042 0.139095 20.4675 0.0314085 22.4193L0 22.9578H0.901873H1.80823V22.7379C1.80823 21.2168 2.44089 19.117 3.28892 17.8247C4.59462 15.828 6.34452 14.4595 8.47581 13.764C10.5039 13.1 12.4961 13.1 14.5242 13.764C16.6555 14.4595 18.4054 15.828 19.7111 17.8247C20.5591 19.117 21.1918 21.2168 21.1918 22.7379V22.9578H22.0981H23L22.9686 22.4193C22.8609 20.4675 22.3314 18.7042 21.3892 17.1248C20.236 15.1954 18.6163 13.6833 16.6241 12.6827C16.1619 12.4539 15.9286 12.3507 15.3857 12.1443L15.26 12.0994L15.5652 11.8661C16.7991 10.9328 17.7144 9.43416 18.033 7.81438C18.1317 7.32081 18.1451 6.10934 18.0554 5.57091C17.8625 4.39085 17.2657 3.139 16.476 2.24161C15.4934 1.13334 14.1114 0.352612 12.6711 0.092371C12.3256 0.0295525 11.1814 -0.0242901 10.9391 0.0116062ZM12.2583 1.84676C14.8966 2.27751 16.7003 4.76326 16.2786 7.38363C15.8478 10.0219 13.3621 11.8257 10.7417 11.4039C8.10339 10.9732 6.29965 8.48742 6.72142 5.86705C7.15216 3.22873 9.63792 1.42499 12.2583 1.84676Z" fill="#484B52"/>
</svg>
