<svg width="28" height="24" viewBox="0 0 28 24" fill="none" xmlns="http://www.w3.org/2000/svg">
<path d="M1 1L3.12991 1.42788C3.64545 1.53145 4.11867 1.78565 4.48966 2.1583V2.1583C4.87943 2.54981 5.13748 3.05308 5.22791 3.59808L5.67302 6.28061M5.67302 6.28061L7.35441 15.2881C7.40151 15.5404 7.48341 15.7849 7.59778 16.0147L7.66905 16.1578C7.89005 16.6018 8.2491 16.9622 8.6923 17.1847V17.1847C9.01153 17.3451 9.36382 17.4286 9.72105 17.4286H22.0694C22.4267 17.4286 22.7789 17.3451 23.0982 17.1847V17.1847C23.5414 16.9622 23.9004 16.6018 24.1214 16.1578L24.2577 15.884C24.3292 15.7405 24.389 15.5914 24.4366 15.4384L27.1647 6.66973C27.2247 6.47663 27.0804 6.28061 26.8782 6.28061H5.67302Z" stroke="#484B52" stroke-width="1.5" stroke-linecap="round"/>
<circle cx="11.9522" cy="21.8096" r="1.79048" stroke="#484B52" stroke-width="0.8"/>
<circle cx="20.7139" cy="21.8094" r="1.79048" stroke="#484B52" stroke-width="0.8"/>
</svg>
