<svg width="28" height="23" viewBox="0 0 28 23" fill="none" xmlns="http://www.w3.org/2000/svg">
<path d="M6.292 0.053793C3.90264 0.42757 1.93235 1.84169 0.850255 3.95353C-0.119252 5.84734 -0.269369 8.20213 0.449942 10.2517C1.65088 13.6655 5.3225 17.5403 10.8893 21.2719C12.378 22.2686 12.672 22.387 13.6415 22.387C14.5547 22.387 14.9112 22.2499 16.0934 21.4712C21.7979 17.7085 25.6071 13.7278 26.833 10.2517C27.4085 8.61328 27.4335 6.7444 26.8956 5.06863C25.8948 1.92268 22.8987 -0.164244 19.6462 0.0101871C18.2451 0.0849419 17.0817 0.477407 15.862 1.28726C15.2615 1.67972 14.2795 2.58302 13.8416 3.13745L13.6415 3.38664L13.4413 3.13745C13.0348 2.6204 12.009 1.67349 11.4585 1.31218C10.5641 0.714132 9.71968 0.352816 8.73766 0.141008C8.19974 0.022646 6.81116 -0.0209618 6.292 0.053793ZM8.21851 1.64235C9.3006 1.82923 10.4015 2.35875 11.2709 3.11254C11.715 3.49254 12.3342 4.22141 12.722 4.81945C13.0848 5.38011 13.2599 5.54208 13.5602 5.57323C13.9167 5.61684 14.1294 5.44864 14.6485 4.6824C15.7306 3.1063 17.1004 2.10334 18.758 1.69218C19.396 1.53021 20.7158 1.5489 21.3725 1.72333C23.4617 2.27777 25.0191 3.89124 25.5696 6.0716C25.6509 6.40177 25.6759 6.76309 25.6759 7.62278C25.6759 8.66935 25.6634 8.78148 25.5007 9.30477C24.9441 11.1114 23.8182 12.8183 21.8354 14.8429C20.1466 16.5623 17.9636 18.3439 15.518 19.9886C13.7603 21.166 13.5101 21.166 11.6712 19.92C9.22554 18.2692 7.14267 16.5747 5.44759 14.8429C3.29591 12.6501 2.15127 10.8497 1.68841 8.93099C1.52578 8.2582 1.52578 7.02473 1.68841 6.25226C1.93235 5.07486 2.42023 4.13419 3.2146 3.31188C4.55315 1.92268 6.36081 1.31841 8.21851 1.64235Z" fill="#484B52"/>
</svg>
