<svg width="18" height="18" viewBox="0 0 18 18" fill="none" xmlns="http://www.w3.org/2000/svg">
<path d="M6.52952 0.957909C4.31228 1.22662 2.42616 2.31267 1.22589 4.02012C-0.754833 6.83041 -0.293649 10.598 2.3079 12.8989C3.67963 14.1137 5.40021 14.7519 7.29224 14.7519C8.93595 14.7519 10.3786 14.304 11.6558 13.4027L12.1169 13.0724L12.7378 13.649C13.0807 13.9625 14.2632 15.071 15.3689 16.1122C17.5506 18.1556 17.5447 18.1556 17.8522 17.8589C17.9527 17.7693 18 17.6629 18 17.5398C18 17.3718 17.7635 17.1367 15.3984 14.8918L12.8028 12.4286L12.9211 12.2887C13.7193 11.3482 14.3046 10.1333 14.5175 8.98572C14.6239 8.40351 14.6121 7.11032 14.482 6.5505C13.8612 3.75701 11.7563 1.71926 8.83544 1.08667C8.34469 0.980301 6.98479 0.901926 6.52952 0.957909ZM8.865 2.06635C9.51539 2.2231 10.3432 2.58138 10.9167 2.94527C11.4193 3.26436 12.2352 4.05371 12.584 4.55755C13.2581 5.53723 13.5655 6.45533 13.6069 7.67014C13.672 9.40558 13.1044 10.8107 11.8331 12.0479C10.6092 13.2403 9.07786 13.8561 7.32772 13.8561C4.83851 13.8561 2.70405 12.591 1.61022 10.4692C-0.22861 6.8808 2.08322 2.67096 6.29301 1.95439C6.97887 1.83682 8.13775 1.88721 8.865 2.06635Z" fill="#484B52"/>
</svg>
